<svg viewBox="0 0 138 138" style="overflow: hidden; position: relative;" xmlns="http://www.w3.org/2000/svg" width="138" version="1.1" height="138"><desc>Created with Raphaël 2.1.0</desc><defs><linearGradient gradientTransform="matrix(1,0,0,1,0,0)" y2="0" x2="6.123233995736766e-17" y1="1" x1="0" id="183990-_03CA45-_AF00AA"><stop stop-color="#03ca45" offset="0%"></stop><stop stop-color="#af00aa" offset="100%"></stop></linearGradient></defs><path stroke-width="0.2631578947368421" transform="matrix(3.8,0,0,3.8,9.6014,8.62)" fill-opacity="1" opacity="1" d="M8.179,20.115C7.7010000000000005,20.392,7.537,21.003999999999998,7.814,21.480999999999998C8.089,21.959999999999997,8.703,22.122999999999998,9.179,21.846999999999998C9.658,21.572,9.822000000000001,20.958999999999996,9.546,20.479999999999997C9.27,20.004,8.658,19.84,8.179,20.115ZM9.18,12.239C8.701,11.963000000000001,8.09,12.127,7.814,12.605S7.703,13.695,8.179,13.971C8.658,14.247,9.269,14.084,9.546,13.605C9.821,13.126,9.657,12.516,9.18,12.239ZM8.625,17.043C8.624,16.491,8.177,16.044,7.6240000000000006,16.043C7.071000000000001,16.043,6.6240000000000006,16.491,6.6240000000000006,17.043C6.6240000000000006,17.596,7.073,18.043,7.6240000000000006,18.043C8.176,18.043,8.624,17.596,8.625,17.043ZM16.312,3.957V3.031H17.312C17.587,3.031,17.812,2.806,17.812,2.531V2.031C17.812,1.7560000000000002,17.587,1.5310000000000001,17.312,1.5310000000000001H13.687000000000001C13.412,1.5310000000000001,13.187000000000001,1.7560000000000002,13.187000000000001,2.031V2.531C13.187000000000001,2.806,13.412,3.031,13.687000000000001,3.031H14.687000000000001V3.9570000000000003C7.819,4.381,2.376,10.068,2.374,17.042C2.376,24.291,8.251,30.166,15.5,30.169C22.749,30.166,28.624000000000002,24.291,28.625,17.042C28.624,10.067,23.181,4.38,16.312,3.957ZM15.5,27.166C9.909,27.157,5.385,22.633,5.375,17.042C5.385,11.451,9.909,6.927,15.5,6.917C21.09,6.927,25.615000000000002,11.452,25.624000000000002,17.042C25.615,22.633,21.091,27.157,15.5,27.166ZM12.062,22.998C11.584,22.723000000000003,10.972999999999999,22.887,10.696,23.365000000000002C10.421,23.844,10.584999999999999,24.455000000000002,11.062,24.73C11.54,25.007,12.152999999999999,24.841,12.427,24.365000000000002C12.704,23.887,12.54,23.275,12.062,22.998ZM12.062,11.088C12.540999999999999,10.812,12.703999999999999,10.2,12.427999999999999,9.722C12.152,9.244,11.54,9.08,11.062,9.356S10.42,10.244,10.696,10.722C10.973,11.2,11.584,11.364,12.062,11.088ZM22.822,13.971C23.3,13.696,23.465,13.083,23.188,12.605C22.913,12.127,22.298,11.963000000000001,21.822,12.239C21.343,12.517000000000001,21.18,13.129000000000001,21.456,13.606000000000002C21.732,14.083,22.344,14.247,22.822,13.971ZM15.501,23.92C14.949,23.92,14.501,24.367,14.501,24.92C14.501,25.472,14.949,25.92,15.501,25.92S16.500999999999998,25.472,16.500999999999998,24.92C16.501,24.367,16.053,23.92,15.501,23.92ZM19.938,9.355C19.461,9.079,18.846999999999998,9.244,18.573,9.721C18.298000000000002,10.201,18.462,10.812,18.939,11.088000000000001S20.028,11.200000000000001,20.305,10.722000000000001C20.581,10.245,20.418,9.632,19.938,9.355ZM23.378,16.042C22.824,16.044,22.377,16.492,22.377,17.042C22.378,17.594,22.825,18.042,23.378,18.042C23.929,18.042,24.378,17.595000000000002,24.378,17.042C24.378,16.492,23.929,16.042,23.378,16.042ZM22.823,20.115C22.343,19.84,21.731,20.003999999999998,21.456,20.479999999999997C21.181,20.958999999999996,21.344,21.570999999999998,21.823,21.846999999999998C22.3,22.121999999999996,22.912,21.958999999999996,23.188,21.480999999999998C23.464,21.004,23.3,20.391,22.823,20.115ZM15.501,8.167C14.949,8.167,14.501,8.615,14.501,9.167L14.035,16.509999999999998L11.031,18.47C10.553,18.747,10.389000000000001,19.358999999999998,10.666,19.836C10.941,20.314999999999998,11.555,20.477999999999998,12.031,20.201999999999998L15.336,18.526C15.391,18.532,15.445,18.543,15.502,18.543C16.330000000000002,18.543,17.002000000000002,17.871,17.002000000000002,17.043L16.502000000000002,9.166999999999998C16.501,8.614,16.053,8.167,15.501,8.167ZM18.939,22.998C18.46,23.274,18.296,23.886000000000003,18.573,24.365000000000002C18.848,24.842000000000002,19.461000000000002,25.007,19.939,24.73C20.417,24.454,20.581,23.841,20.305,23.365000000000002C20.028,22.886,19.417,22.723,18.939,22.998ZM11.197,3.593C10.360999999999999,2.553,9.094,1.875,7.655999999999999,1.875C5.135999999999999,1.875,3.0939999999999985,3.917,3.0939999999999985,6.437C3.0939999999999985,7.394,3.3909999999999987,8.280000000000001,3.8939999999999984,9.013C5.649,6.484,8.206,4.553,11.197,3.593ZM27.106,9.014C27.609,8.280999999999999,27.906000000000002,7.395,27.906000000000002,6.437999999999999C27.906000000000002,3.917999999999999,25.863000000000003,1.8759999999999986,23.344,1.8759999999999986C21.906000000000002,1.8759999999999986,20.64,2.5539999999999985,19.803,3.5929999999999986C22.794,4.553,25.351,6.484,27.106,9.014Z" stroke="none" fill="url(#183990-_03CA45-_AF00AA)" style="opacity: 1; fill-opacity: 1;"></path><path transform="matrix(1,0,0,1,0,0)" fill-opacity="0.3" d="M0,0" stroke="none" fill="#ffffff" style="fill-opacity: 0.3;"></path></svg>